HIERARCHY
ROOT Hips
{
    OFFSET 0.0 0.0 0.0
    CHANNELS 6 Xposition Yposition Zposition Zrotation Xrotation Yrotation
    JOINT LeftUpLeg
    {
        OFFSET 12.857712840939525 0.0 0.0
        CHANNELS 3 Zrotation Xrotation Yrotation
        JOINT LeftLeg
        {
            OFFSET 0.0 0.0 -59.204005372134674
            CHANNELS 3 Zrotation Xrotation Yrotation
            JOINT LeftFoot
            {
                OFFSET 0.0 0.0 -47.00344139639421
                CHANNELS 3 Zrotation Xrotation Yrotation
                JOINT LeftToeBase
                {
                    OFFSET 0.0 -12.156475608546437 0.0
                    CHANNELS 3 Zrotation Xrotation Yrotation
                    End Site
                    {
                        OFFSET 0 0 0
                    }
                }
            }
        }
    }
    JOINT RightUpLeg
    {
        OFFSET -12.857712840939525 0.0 0.0
        CHANNELS 3 Zrotation Xrotation Yrotation
        JOINT RightLeg
        {
            OFFSET 0.0 0.0 -59.204005372134674
            CHANNELS 3 Zrotation Xrotation Yrotation
            JOINT RightFoot
            {
                OFFSET 0.0 0.0 -47.00344139639421
                CHANNELS 3 Zrotation Xrotation Yrotation
                JOINT RightToeBase
                {
                    OFFSET 0.0 -12.156475608546437 0.0
                    CHANNELS 3 Zrotation Xrotation Yrotation
                    End Site
                    {
                        OFFSET 0 0 0
                    }
                }
            }
        }
    }
    JOINT Spine
    {
        OFFSET 0.0 0.0 12.088784493075387
        CHANNELS 3 Zrotation Xrotation Yrotation
        JOINT Spine1
        {
            OFFSET 0.0 0.0 11.867783987843383
            CHANNELS 3 Zrotation Xrotation Yrotation
            JOINT Spine2
            {
                OFFSET 0.0 0.0 11.867783987843385
                CHANNELS 3 Zrotation Xrotation Yrotation
                JOINT Spine3
                {
                    OFFSET 0.0 0.0 11.867783987843378
                    CHANNELS 3 Zrotation Xrotation Yrotation
                    JOINT Spine4
                    {
                        OFFSET 0.0 0.0 11.867783987843389
                        CHANNELS 3 Zrotation Xrotation Yrotation
                        JOINT RightShoulder
                        {
                            OFFSET -21.40493613191613 0.0 0.0
                            CHANNELS 3 Zrotation Xrotation Yrotation
                            JOINT RightArm
                            {
                                OFFSET -37.61970332749618 0.0 0.0
                                CHANNELS 3 Zrotation Xrotation Yrotation
                                JOINT RightForeArm
                                {
                                    OFFSET -33.31934752120898 0.0 0.0
                                    CHANNELS 3 Zrotation Xrotation Yrotation
                                    JOINT RightHand
                                    {
                                        OFFSET -12.375204394355174 0.0 0.0
                                        CHANNELS 3 Zrotation Xrotation Yrotation
                                        End Site
                                        {
                                            OFFSET 0 0 0
                                        }
                                    }
                                }
                            }
                        }
                        JOINT LeftShoulder
                        {
                            OFFSET 21.40493613191613 0.0 0.0
                            CHANNELS 3 Zrotation Xrotation Yrotation
                            JOINT LeftArm
                            {
                                OFFSET 37.61970332749618 0.0 0.0
                                CHANNELS 3 Zrotation Xrotation Yrotation
                                JOINT LeftForeArm
                                {
                                    OFFSET 33.31934752120898 0.0 0.0
                                    CHANNELS 3 Zrotation Xrotation Yrotation
                                    JOINT LeftHand
                                    {
                                        OFFSET 12.375204394355174 0.0 0.0
                                        CHANNELS 3 Zrotation Xrotation Yrotation
                                        End Site
                                        {
                                            OFFSET 0 0 0
                                        }
                                    }
                                }
                            }
                        }
                        JOINT Neck
                        {
                            OFFSET 0.0 0.0 11.867784066360093
                            CHANNELS 3 Zrotation Xrotation Yrotation
                            JOINT Head
                            {
                                OFFSET 0.0 0.0 25.197884113712472
                                CHANNELS 3 Zrotation Xrotation Yrotation
                                End Site
                                {
                                    OFFSET 0 0 0
                                }
                            }
                        }
                    }
                }
            }
        }
    }
}
MOTION
Frames: 7
Frame Time: 0.03333333333333333
47.85499348640442 -5.709917253255845 446.8628849029541 15.467469023177134 -77.62681215204361 11.702765695432843 -3.274902327015459 -6.458395646644449 -16.973547142569846 10.064453206089974 -5.043411732977301 21.178075711251882 -92.82905864365141 3.1805546814635168e-15 59.28358509847266 0.0 0.0 0.0 -3.260066171563518 -13.398863055525366 22.34030903155303 -7.684232415590045 -3.30064613075317 -40.490805288071236 99.31560402004908 -1.5902773407317584e-14 -73.07290965371966 0.0 0.0 0.0 0.3983686460450382 -13.776220466384197 2.0356205057105448 0.0 0.0 0.0 0.0 0.0 0.0 0.0 0.0 0.0 0.0 0.0 0.0 -22.9579156517264 -48.857716386560334 -5.738554739094861 143.32062230480196 5.4125382333572805e-15 3.888402834906478e-15 180.0 23.53822386567696 -180.0 0.0 0.0 0.0 168.26818731018736 6.239475932706115 -175.48370103318794 -40.09163564080432 1.6353742305394978e-14 1.2738414006499609e-14 -180.0 -3.175788358026458 -180.0 -3.1805546814635168e-15 0.0 0.0 -7.207164104819969 6.38312155559471e-15 9.995280630866004e-16 -1.987846675914698e-16 0.0 0.0
47.85499348640442 -5.709917253255845 446.8628849029541 15.467469023177134 -77.62681215204361 11.702765695432843 -3.274902327015459 -6.458395646644449 -16.973547142569846 10.064453206089974 -5.043411732977301 21.178075711251882 -92.82905864365141 3.1805546814635168e-15 59.28358509847266 0.0 0.0 0.0 -3.260066171563518 -13.398863055525366 22.34030903155303 -7.684232415590045 -3.30064613075317 -40.490805288071236 99.31560402004908 -1.5902773407317584e-14 -73.07290965371966 0.0 0.0 0.0 0.3983686460450382 -13.776220466384197 2.0356205057105448 0.0 0.0 0.0 0.0 0.0 0.0 0.0 0.0 0.0 0.0 0.0 0.0 -22.9579156517264 -48.857716386560334 -5.738554739094861 143.32062230480196 5.4125382333572805e-15 3.888402834906478e-15 180.0 23.53822386567696 -180.0 0.0 0.0 0.0 168.26818731018736 6.239475932706115 -175.48370103318794 -40.09163564080432 1.6353742305394978e-14 1.2738414006499609e-14 -180.0 -3.175788358026458 -180.0 -3.1805546814635168e-15 0.0 0.0 -7.207164104819969 6.38312155559471e-15 9.995280630866004e-16 -1.987846675914698e-16 0.0 0.0
47.85499348640442 -5.709917253255845 446.8628849029541 15.467469023177134 -77.62681215204361 11.702765695432843 -3.274902327015459 -6.458395646644449 -16.973547142569846 10.064453206089974 -5.043411732977301 21.178075711251882 -92.82905864365141 3.1805546814635168e-15 59.28358509847266 0.0 0.0 0.0 -3.260066171563518 -13.398863055525366 22.34030903155303 -7.684232415590045 -3.30064613075317 -40.490805288071236 99.31560402004908 -1.5902773407317584e-14 -73.07290965371966 0.0 0.0 0.0 0.3983686460450382 -13.776220466384197 2.0356205057105448 0.0 0.0 0.0 0.0 0.0 0.0 0.0 0.0 0.0 0.0 0.0 0.0 -22.9579156517264 -48.857716386560334 -5.738554739094861 143.32062230480196 5.4125382333572805e-15 3.888402834906478e-15 180.0 23.53822386567696 -180.0 0.0 0.0 0.0 168.26818731018736 6.239475932706115 -175.48370103318794 -40.09163564080432 1.6353742305394978e-14 1.2738414006499609e-14 -180.0 -3.175788358026458 -180.0 -3.1805546814635168e-15 0.0 0.0 -7.207164104819969 6.38312155559471e-15 9.995280630866004e-16 -1.987846675914698e-16 0.0 0.0
47.899841165542604 -5.509607747197152 446.9144124984741 14.618777424963449 -77.64528510996048 10.988367442821811 -3.172599516744522 -6.585671778604708 -17.216173060690448 5.651581777687126 -2.8018151665287814 14.497302528839493 -76.8613875272847 6.3611093629270335e-15 52.002437761847176 6.3611093629270335e-15 0.0 0.0 -3.1677054623778695 -13.411361111820508 21.9621099337102 -7.452272453616026 -3.2684406910518433 -39.967457363208844 99.32177353399629 -1.5902773407317584e-14 -72.93097993723617 0.0 -3.1805546814635168e-15 0.0 0.45853738458296217 -13.821987135702589 1.9665175146011455 0.0 -1.5530052155583576e-18 0.0 0.0 -1.5530052155583576e-18 0.0 0.0 -1.5530052155583576e-18 0.0 0.0 -1.5530052155583576e-18 0.0 -23.841742506893272 -47.921895535336795 -6.663364107607229 143.28936461991083 -7.289449543007175e-15 1.7702472468135388e-15 -180.0 20.223454955005245 180.0 0.0 0.0 0.0 168.70119114334392 6.126417407423859 -175.94764843488625 -40.10491049873925 5.86909882315909e-15 -4.62934609066992e-15 180.0 -0.5957078599714205 -180.0 3.1805546814635168e-15 0.0 0.0 -6.92939679075391 1.2438924356484348e-14 5.53956172558456e-16 0.0 0.0 -1.987846675914698e-16
48.00260903835297 -5.511971962451935 446.9293270111084 14.255732921557998 -77.6362728913579 10.683180870475923 -3.1943130956716907 -6.578944770756698 -17.29634751656079 -2.7468958046189513 1.3585027631810327 8.665185927583318 -51.91382804957536 1.90833280887811e-14 45.970951909850996 0.0 0.0 0.0 -3.1632098849189614 -13.433050076944495 21.954725203271504 -7.309117612312397 -3.206916979243284 -40.013389616591866 99.3340483287288 -9.54166404439055e-15 -72.85112794047751 0.0 0.0 0.0 0.4693441351506543 -13.838694317927729 1.9405987529156468 0.0 0.0 -3.975693351829396e-16 0.0 0.0 -3.975693351829396e-16 0.0 0.0 -3.975693351829396e-16 0.0 0.0 -3.975693351829396e-16 -23.790935274972377 -46.311425548964365 -6.786161663899395 142.124463828114 1.3921497317761635e-14 1.822690792987361e-14 180.0 16.369942071481 -180.0 -6.3611093629270335e-15 0.0 0.0 168.78938830481968 6.211006803313051 -175.95991958173818 -40.15325330737344 -9.540228865753315e-15 -1.0048861643126415e-16 180.0 -0.7424967712988405 180.0 0.0 0.0 0.0 -6.82457842942616 1.4366959191701778e-14 8.566470979463754e-16 0.0 0.0 -1.987846675914698e-16
48.16253743171693 -5.547094407677651 446.9399717330932 13.88672695005108 -77.61693043203513 10.380421873922236 -3.249787165077777 -6.547375053138999 -17.388921164918745 -11.102010184050734 5.417330201428589 5.329066226851382 -24.54465249017899 4.770832022195275e-15 44.98765068218285 0.0 0.0 0.0 -3.1506283294006394 -13.444627876481244 21.996659591557997 -7.213585436853169 -3.1573058902137414 -40.12071593643942 99.37475726485866 -1.90833280887811e-14 -72.79674198539267 6.3611093629270335e-15 -3.1805546814635168e-15 -3.1805546814635168e-15 0.4749061711266788 -13.862713916631366 1.9077901054733395 0.0 0.0 0.0 0.0 0.0 0.0 0.0 0.0 0.0 0.0 0.0 0.0 -23.75658063585153 -44.864403495395585 -6.968387253215521 140.88775077687703 7.984704734801433e-16 -2.247811034980778e-15 180.0 12.034604238749317 -180.0 0.0 0.0 0.0 168.84151568469963 6.331789273804821 -175.92354930936654 -40.22310915677665 3.4005759705118142e-15 -5.5289527654728514e-15 -180.0 -1.1127728449384893 -180.0 0.0 0.0 0.0 -6.704979475680156 -2.2503323515493997e-15 -3.309473209530563e-16 -1.987846675914698e-16 0.0 0.0
48.37490837574005 -5.612893536686897 446.94499282836915 13.547417374081753 -77.58906019904848 10.107677149239565 -3.325752129123398 -6.498109934982143 -17.472300824315433 -12.62834688899106 6.120138714228494 5.184096658328029 -16.216227257141057 1.5902773407317584e-15 44.87162177878444 0.0 0.0 0.0 -3.106423493202873 -13.42600632768315 22.088525695013857 -7.241802687230966 -3.155092956225617 -40.28567568707225 99.45157282802704 9.54166404439055e-15 -72.79689855818307 0.0 3.1805546814635168e-15 0.0 0.48028755745874246 -13.893511390337377 1.8641380739357516 3.975693351829397e-16 1.5530052155583582e-18 -5.38806921148701e-36 3.975693351829397e-16 1.5530052155583582e-18 -5.38806921148701e-36 3.975693351829397e-16 1.5530052155583582e-18 -5.38806921148701e-36 3.975693351829397e-16 1.5530052155583582e-18 -5.38806921148701e-36 -23.768001684908757 -43.564792451772 -7.197766159838076 139.55518424714373 -6.518700822990789e-15 -7.065648787634786e-16 180.0 7.071574518432057 -180.0 0.0 0.0 0.0 168.85599371663113 6.4757195229092375 -175.85938541682148 -40.30926880951942 -5.774025349595336e-15 -7.201262582698362e-15 180.0 -1.7484732368388758 180.0 -3.1805546814635168e-15 0.0 0.0 -6.575518355673219 1.0673477536361698e-15 -7.351354551410568e-16 0.0 0.0 -1.987846675914698e-16
